<?xml version="1.0" standalone="no"?>
<!DOCTYPE svg PUBLIC "-//W3C//DTD SVG 20010904//EN"
 "http://www.w3.org/TR/2001/REC-SVG-20010904/DTD/svg10.dtd">
<svg version="1.0" xmlns="http://www.w3.org/2000/svg"
 width="700.000000pt" height="700.000000pt" viewBox="0 0 700.000000 700.000000"
 preserveAspectRatio="xMidYMid meet">
<metadata>
Created by potrace 1.14, written by Peter Selinger 2001-2017
</metadata>
<g transform="translate(0.000000,700.000000) scale(0.100000,-0.100000)"
fill="#000000" stroke="none">
<path d="M3640 6670 c-72 -3 -134 -10 -147 -17 -22 -13 -38 -50 -48 -113 -3
-19 -11 -53 -16 -75 -6 -22 -12 -71 -14 -110 -2 -38 -8 -83 -14 -98 -17 -43
-13 -86 9 -122 l20 -33 -42 -13 c-29 -10 -49 -24 -63 -46 -20 -33 -71 -62
-161 -93 -51 -18 -84 -24 -199 -35 -161 -16 -237 -43 -256 -88 -7 -16 -13 -65
-13 -109 -1 -71 -4 -82 -25 -99 -13 -10 -31 -19 -40 -19 -9 0 -35 -7 -58 -15
-52 -18 -86 -14 -143 18 -25 14 -98 37 -163 51 -64 14 -135 33 -157 42 -52 21
-60 34 -74 130 -9 57 -26 94 -45 95 -96 4 -122 12 -178 55 -61 46 -101 38
-127 -27 -23 -56 -20 -94 9 -138 19 -29 27 -55 30 -107 2 -38 10 -105 18 -149
7 -44 12 -123 12 -175 -2 -73 2 -105 17 -138 22 -54 23 -81 1 -89 -16 -6 -95
29 -121 54 -20 20 -58 26 -100 17 -57 -12 -90 -6 -127 22 -48 36 -65 36 -109
-2 -31 -27 -48 -34 -81 -34 -71 0 -109 42 -122 135 -14 101 -38 117 -180 123
l-104 4 -34 -36 -34 -36 -93 4 c-73 3 -105 10 -147 29 -45 21 -58 24 -80 14
-14 -6 -68 -13 -119 -17 -110 -7 -133 -23 -155 -110 -18 -69 -13 -87 29 -100
33 -11 34 -13 34 -65 0 -60 21 -85 72 -85 33 0 38 -20 6 -21 -126 -5 -158 -16
-158 -53 0 -15 15 -36 43 -60 23 -20 50 -43 60 -51 9 -8 17 -25 17 -37 1 -13
9 -39 18 -58 16 -31 21 -35 57 -35 22 1 61 4 87 8 55 9 97 -5 149 -50 52 -46
119 -80 179 -92 30 -7 58 -17 62 -24 4 -7 8 -31 8 -55 0 -55 13 -59 100 -38
102 24 103 24 84 -23 -12 -31 -13 -44 -4 -61 11 -21 17 -22 76 -16 68 7 71 5
53 -41 -15 -40 -15 -119 0 -137 17 -20 74 -36 130 -36 l45 0 -22 -20 c-27 -26
-28 -45 -2 -77 19 -24 37 -89 28 -99 -3 -2 -18 2 -34 11 -37 19 -48 19 -65 -1
-23 -27 15 -102 98 -194 26 -28 52 -80 84 -163 51 -135 109 -187 207 -187 40
0 62 -4 65 -13 6 -15 1 -107 -7 -152 -4 -17 -8 -57 -11 -90 -8 -85 -14 -107
-35 -130 -11 -12 -22 -37 -25 -58 -5 -30 -2 -41 19 -62 14 -14 34 -25 45 -25
22 0 66 -49 96 -107 11 -21 23 -40 26 -43 19 -15 41 -141 27 -155 -3 -3 -13
24 -23 61 -35 128 -73 179 -132 172 -45 -5 -78 -83 -107 -258 -3 -22 -18 -97
-21 -110 -1 -3 -5 -23 -10 -45 -4 -22 -13 -51 -21 -65 -44 -85 -33 -123 37
-133 80 -11 75 -47 -7 -47 -54 0 -73 -22 -79 -91 -7 -83 -14 -107 -61 -206
-149 -316 -149 -316 -164 -397 -10 -59 -43 -117 -78 -135 -9 -5 -39 -12 -67
-16 -58 -7 -67 -13 -41 -29 11 -6 40 -29 66 -52 39 -34 54 -40 96 -43 27 -1
53 -6 57 -10 5 -5 1 -30 -7 -55 -32 -93 -14 -128 74 -146 40 -8 65 -20 91 -46
30 -29 47 -37 99 -44 77 -11 114 -35 118 -78 5 -50 32 -62 139 -62 l92 0 18
-50 c12 -34 25 -53 43 -60 14 -5 81 -12 150 -14 80 -2 138 -9 160 -18 70 -30
140 -1 140 58 0 14 6 24 14 24 24 0 80 -28 126 -63 56 -42 84 -57 107 -57 11
0 32 -14 48 -30 16 -17 34 -30 41 -30 21 0 28 -21 29 -91 2 -93 8 -98 113 -98
48 1 94 0 103 0 9 -1 22 -13 29 -28 26 -51 41 -63 81 -63 21 0 56 9 77 20 47
25 91 15 137 -30 30 -29 55 -36 110 -32 11 1 35 16 53 32 23 21 43 30 67 30
61 0 123 22 128 44 3 12 4 76 2 143 -3 118 21 293 42 314 4 4 62 35 128 68 91
45 136 75 185 121 72 69 111 90 166 90 31 0 44 -8 85 -50 46 -48 51 -50 101
-50 47 0 59 -4 102 -40 26 -22 53 -41 60 -41 58 -6 80 -4 103 8 25 13 34 12
103 -13 95 -34 127 -50 159 -80 14 -14 45 -34 68 -45 23 -11 58 -31 78 -44 87
-60 310 -85 431 -50 90 26 109 39 137 97 41 84 148 186 255 243 28 16 76 53
105 84 28 30 72 73 97 95 150 136 158 151 119 215 -18 30 -23 33 -57 28 -20
-3 -55 -11 -77 -17 -39 -12 -42 -12 -130 38 -49 28 -103 62 -120 76 -28 23
-30 30 -29 88 0 66 17 110 59 156 13 14 32 40 42 59 17 32 17 34 0 66 -10 19
-41 46 -71 64 -29 18 -71 52 -94 77 -36 39 -40 48 -36 82 7 54 39 71 136 73
72 1 83 6 107 45 28 45 32 102 11 157 -27 67 -71 136 -97 150 -12 7 -25 20
-28 31 -23 72 -11 115 39 142 34 18 56 52 56 85 0 29 -30 56 -82 75 -51 19
-53 21 -38 60 5 14 11 55 14 92 4 59 2 69 -18 89 -19 19 -31 22 -82 18 -84 -5
-161 -29 -179 -56 -8 -12 -17 -47 -20 -76 -8 -76 -18 -91 -63 -91 -20 0 -43 4
-51 9 -22 14 -6 67 44 140 25 37 48 79 50 93 3 15 15 55 28 89 21 59 24 63 69
78 61 21 66 27 69 84 3 56 31 107 57 107 49 0 165 109 182 170 5 19 17 62 26
95 20 76 28 85 67 79 60 -9 136 -5 169 9 59 25 73 50 75 136 1 42 8 95 17 118
8 24 16 82 17 132 1 76 6 100 34 164 18 41 45 128 60 193 15 66 31 127 37 137
5 9 31 28 57 42 27 13 59 38 71 55 42 59 35 156 -12 181 -11 6 -53 12 -94 14
-71 3 -164 34 -164 55 0 18 -55 27 -85 15 -35 -15 -68 -11 -113 16 -35 20 -83
33 -167 44 -56 7 -60 11 -76 80 -6 27 -18 65 -26 82 -18 38 -48 49 -166 57
-45 3 -97 14 -126 26 -59 26 -70 28 -146 30 l-60 1 -40 62 c-36 55 -49 67
-126 107 -123 64 -119 59 -119 152 0 44 -7 105 -16 135 -13 46 -19 54 -37 51
-16 -2 -25 -17 -39 -63 -29 -96 -33 -99 -120 -85 -96 14 -109 28 -115 117 -6
95 -22 113 -118 140 -88 26 -121 44 -157 88 -36 43 -118 204 -118 231 0 77
-41 97 -131 64 -33 -13 -61 -21 -62 -19 -2 2 -7 17 -13 34 -5 17 -18 31 -29
33 -34 7 -44 22 -56 83 -6 33 -20 70 -30 83 -21 26 -22 26 -279 16z"/>
</g>
</svg>
