<?xml version="1.0" encoding="utf-8"?>
<!-- Generator: Adobe Illustrator 25.1.0, SVG Export Plug-In . SVG Version: 6.00 Build 0)  -->
<svg version="1.1"
	 id="svg2" inkscape:output_extension="org.inkscape.output.svg.inkscape" inkscape:version="0.47 r22583" sodipodi:docname="france.svg" sodipodi:version="0.32" xmlns:cc="http://creativecommons.org/ns#" xmlns:dc="http://purl.org/dc/elements/1.1/" xmlns:inkscape="http://www.inkscape.org/namespaces/inkscape" xmlns:ns1="http://sozi.baierouge.fr" xmlns:rdf="http://www.w3.org/1999/02/22-rdf-syntax-ns#" xmlns:sodipodi="http://sodipodi.sourceforge.net/DTD/sodipodi-0.dtd" xmlns:svg="http://www.w3.org/2000/svg"
	 xmlns="http://www.w3.org/2000/svg" xmlns:xlink="http://www.w3.org/1999/xlink" x="0px" y="0px" viewBox="0 0 209.2 209.1"
	 style="enable-background:new 0 0 209.2 209.1;" xml:space="preserve">
<style type="text/css">
	.st0{clip-path:url(#path8072_4_);fill:#EC1920;}
	.st1{clip-path:url(#path8072_5_);fill:#FFFFFF;}
	.st2{clip-path:url(#path8072_6_);fill:#051440;stroke:#7F7F7F;stroke-miterlimit:10;}
	.st3{display:none;}
	.st4{display:inline;fill-rule:evenodd;clip-rule:evenodd;fill:#2E3436;}
</style>
<sodipodi:namedview  bordercolor="#666666" borderopacity="1.0" gridtolerance="10000" guidetolerance="10" id="base" inkscape:current-layer="layer1" inkscape:cx="94.522622" inkscape:cy="95.915126" inkscape:document-units="px" inkscape:guide-bbox="true" inkscape:pageopacity="0.0" inkscape:pageshadow="2" inkscape:window-height="941" inkscape:window-maximized="0" inkscape:window-width="1305" inkscape:window-x="0" inkscape:window-y="25" inkscape:zoom="3.6855503" objecttolerance="10" pagecolor="#ffffff" showgrid="false" showguides="true">
	</sodipodi:namedview>
<g>
	<defs>
		
			<path id="path8072" sodipodi:nodetypes="cssssssssssssssssssssssssssssssssssssssssssssssssssssssssssssssssssssssssssssssssssssssssssssssssssssssssssssssssssssssssssssscssssssssssssssssssssssc" d="
			M108.1,199.3c0.3-2,0-2.1,0-4.4c0-2.1-0.2-3.3,0.3-5.3c0.3-1.1,0.2-3.5,1.4-4.7c0.8-0.8,5.9-2.5,8.3-4.6c2-1.8,2.8-3.7,6.2-3.7
			c2.7,0,3.1,3.1,4.5,3c4.8-0.3,3.4,1.8,6.2,2.5c2.8,0.7,2.5-1.4,4.8-0.3c1.5,0.7,4.6,1.4,5.5,2.4c2,2.2,4.1,2.1,5.6,3.7
			c0.2,0.2,5.5,1.6,8.6,1.4c2.3-0.1,6-1.1,6.5-2.2c0.5-1.3,0.7-2.2,2.8-4.3c1.8-1.8,3.5-3.3,5.5-4.2c2.5-1.1,4-3.7,5.5-5.1
			c2.4-2.1,5-3.4,4.3-5.2c-1.6-4-3.9,1.5-6.9-1.3c-0.7-0.6-5.8-2.7-6-4.5c-0.2-1.5-0.5-2.3,0.9-5.2c1.1-2.1,3.8-3.2,1.7-5.3
			c-1.1-1.1-2-0.9-3.3-2.3c-1.2-1.2-2.7-1.7-2.3-4.2c0.3-2.4,3.3-2.3,5.8-2.3c1,0,1.9-1.1,2.2-2.4c0.4-2-0.2-3-2.2-6.5
			c-0.5-0.9-2.3-0.5-2.3-3.9c0-3.5,3.3-1.9,3.2-5.1c-0.1-1.8-4.6-1.5-3.8-3.1c0.1-0.2,1.7-5.9-0.1-6.2c-0.6-0.1-7.1-0.1-7.1,2.4
			c0,1.5-0.2,3.9-1.4,4.2c-3,0.6-4.2-0.7-3-3.1c1.2-2.4,2.2-2.4,2.9-5.1c1.6-6.5,2-3.8,4.7-5.6c0,0-0.1-4.4,1.6-4.8
			c2.4-0.7,3.1-1.4,5.2-3.8c0.7-0.7,1-4.2,1.8-6c0.7-1.5,2.6-0.4,4.2-0.5c3.5-0.1,5-1.4,4.5-4.5c-0.4-2.7,1.3-3.2,1-6.7
			c-0.2-3.1,0.5-4.2,1.6-6.6c0.8-1.7,1.2-4.6,1.7-6.6c0.9-3.7,0.8-2.5,3.5-4c2.1-1.1,3.1-6.1-0.5-6.1c-2.6,0-2.1,0.2-4.8-0.6
			c-0.9-0.3-2.3-2.5-3.7-1.5c-1.1,0.7-3.3,0.1-4.3-0.8c-1.2-1.1-5.4-0.7-6-1.3c-1.2-1.2-1.1-5.2-2.3-5.6c-2.4-1-5.6-0.2-7.8-1.4
			c-3.2-1.8-6-0.2-6.6-1.3c-1.2-2.5-1.9-3.4-4.3-4.6c-0.7-0.4-4.2-1.8-4.2-2.7c0-2.2,0.3-3.7-0.2-5.8c-1.1-4.5-1.3,0.4-2.3,2
			c-1.2,1.9-1.4,0.9-3.7,0.7c-3-0.3-3.6-1.2-3.6-4.7c0-2.2-0.8-2.5-3.3-3c-2.9-0.6-3.9-1.5-5.5-3.7c-0.4-0.5-2.8-5.1-2.8-5.5
			c0-3.6-1.7-3-3.5-2.1c-4.2,2.1-1.1-1.6-3.8-1.7c-1.9-0.1-1.1-5.5-3-5.5c-2.8,0-4.6,0.3-7.4,0.3c-2.5,0-4.5-0.6-5,2.5
			c-0.3,2.1-1.2,4.7-1,6.8c0.1,2.4-1.8,3.9-0.3,5.8c2.1,2.8-1.7,1.5-2.5,3.1c-0.9,1.9-0.6,1.3-2.7,2.3c-1.4,0.7-4,1.7-6.3,1.8
			c-1.5,0.1-5.8,0.6-7,1c-3.2,1.1-2.7,1.6-2.7,5.5c0,3-1.2,2.6-4,3.6c-1.4,0.4-3.1,0.6-4.6-0.6c-1.2-0.9-3.7-1.2-5.8-1.7
			c-3-0.7-5.6-1.2-6-3.2c-0.3-1.3-0.4-4.6-1.3-4.6c-1.9,0-3.8-0.1-5.1-1.4c-1.7-1.7-3.1-1.7-3.8,1.3c-0.7,2.8,1.6,2.1,1.5,5.2
			c-0.1,3.4,1,5.2,1,9.2c0,3.6-0.6,3.5,0.7,6c1.4,2.9-1.2,3.5-3.7,1.6c-3.2-2.4-2.9-0.7-5.5-0.7c-1.5,0-3.5-3.1-4.6-1.3
			c-1,1.6-4.6,2.4-6.3-0.3c-1.3-2-0.4-4.8-2-5.5c-2-1-2.7-0.3-5.4-0.6c-2.7-0.3-2.2,2.2-3.6,2.1c-1.5-0.1-2.3-0.1-4.5-0.1
			c-1.9,0-3.8-2.3-5.3-1.2c-1.5,1.1-6.5-0.9-7.1,2.4c-0.2,1-1.3,3,0.2,3.3c3.4,0.7-0.4,4.3,3,4.4c2.2,0.1,3.1,1.8-1.5,1.8
			c-3.8,0-2.8,1.9,0.2,3.5c1.4,0.7,0.8,4.4,2.4,4.4c1.5,0,4.5-1.9,7.5,1c1.7,1.7,3.9,2.7,6.1,2.9c3,0.3,0.6,4.3,2.4,3.8
			c6.2-1.7,5.8-0.8,5.1,0.3c-1,1.6-1.3,2.9,1.7,2.2c3.6-0.9,1.6,1,1.4,3.3c-0.2,1.9-0.4,3.1,3.6,3.1c5.4,0-0.8,1.4,0.9,2.9
			c1.5,1.3,1.8,5.2,0.2,4c-2.4-1.7-3.8-0.5,0.8,4.6c2.1,2.3,1.7,3.4,3.2,6.5c0.8,1.6,2.2,3.9,4.3,3.9c2.3,0,4-1.1,3.3,4
			c-0.3,2.4-0.5,2.7-0.7,5.2c-0.2,4-0.8,1.9-1.5,3.8c-0.6,1.6,0.2,2.7,1.4,2.8c1.7,0.2,2.5,2.5,3.7,4.3c0.7,1.1,1.2,2.4,1.3,4.4
			c0.1,2.9-1,2.4-1.8-0.7c-0.9-3.3-1.6-4.3-2.3-4.7c-1.7-1-2.5,0.5-3.2,3.5c-0.6,2.6-1.1,6.3-1.8,9.1c-0.3,1.1-2.4,4.3-0.5,4.4
			c4.3,0.1,3.5,2.7,0.3,2.5c-2.8-0.1-0.9,2.1-2.5,6.2c-0.8,1.9-1.5,3.1-2.5,5.3c-1.2,2.4-1.6,3.7-2.8,6.1c-0.7,1.5-0.3,3.1-1.2,4.8
			c-1.1,2.2-2.1,2.7-5.3,2.9c-0.5,0.1,0.9-0.3,2.5,1.9c0.9,1.2,3.4,0.5,4.6,1.1c0.6,0.3-1.4,3.1-0.8,4.9c0.4,1.4,2.4,0.4,4.3,1.7
			c0.9,0.6,0.9,2.1,3.8,2.1c1.4,0,3.7,0.8,3.7,2.7c0,1.8,1.5,1.4,3.3,1.4c2.1,0,3.5-0.5,4,1.5c0.5,2.1,0.9,2.1,2.9,2.1
			c1.8,0,3.4,0.2,5.1,0.1c2.5-0.2,1.3,1.1,4.2,0.9c1.6-0.1,1.6-0.5,1.6-2.5c0-1.2,3.6,0.5,4.2,1c1.7,1.3,2.8,2.4,3.7,2.3
			c1.3-0.1,2.2,1.8,3,1.9c1.3,0.1,1,2.5,1,3.6c0,2.5,0.9,1.9,3.3,1.9c2.5,0,3.4-0.5,4.2,1.4c0.4,0.8,0.1,1.4,2,1.4
			c2.3,0,1.1-1.2,3.6-1.1c3.2,0.1,2.3,2.7,5.3,2.4c2.7-0.2,0.8-2,4.7-2C107.6,199.9,106.8,199.1,108.1,199.3L108.1,199.3z"/>
	</defs>
	<clipPath id="path8072_4_">
		<use xlink:href="#path8072"  style="overflow:visible;"/>
	</clipPath>
	<rect x="136.3" y="-17.3" class="st0" width="58" height="242"/>
</g>
<g>
	<defs>
		
			<path id="path8072_1_" sodipodi:nodetypes="cssssssssssssssssssssssssssssssssssssssssssssssssssssssssssssssssssssssssssssssssssssssssssssssssssssssssssssssssssssssssssssscssssssssssssssssssssssc" d="
			M108.1,199.3c0.3-2,0-2.1,0-4.4c0-2.1-0.2-3.3,0.3-5.3c0.3-1.1,0.2-3.5,1.4-4.7c0.8-0.8,5.9-2.5,8.3-4.6c2-1.8,2.8-3.7,6.2-3.7
			c2.7,0,3.1,3.1,4.5,3c4.8-0.3,3.4,1.8,6.2,2.5c2.8,0.7,2.5-1.4,4.8-0.3c1.5,0.7,4.6,1.4,5.5,2.4c2,2.2,4.1,2.1,5.6,3.7
			c0.2,0.2,5.5,1.6,8.6,1.4c2.3-0.1,6-1.1,6.5-2.2c0.5-1.3,0.7-2.2,2.8-4.3c1.8-1.8,3.5-3.3,5.5-4.2c2.5-1.1,4-3.7,5.5-5.1
			c2.4-2.1,5-3.4,4.3-5.2c-1.6-4-3.9,1.5-6.9-1.3c-0.7-0.6-5.8-2.7-6-4.5c-0.2-1.5-0.5-2.3,0.9-5.2c1.1-2.1,3.8-3.2,1.7-5.3
			c-1.1-1.1-2-0.9-3.3-2.3c-1.2-1.2-2.7-1.7-2.3-4.2c0.3-2.4,3.3-2.3,5.8-2.3c1,0,1.9-1.1,2.2-2.4c0.4-2-0.2-3-2.2-6.5
			c-0.5-0.9-2.3-0.5-2.3-3.9c0-3.5,3.3-1.9,3.2-5.1c-0.1-1.8-4.6-1.5-3.8-3.1c0.1-0.2,1.7-5.9-0.1-6.2c-0.6-0.1-7.1-0.1-7.1,2.4
			c0,1.5-0.2,3.9-1.4,4.2c-3,0.6-4.2-0.7-3-3.1c1.2-2.4,2.2-2.4,2.9-5.1c1.6-6.5,2-3.8,4.7-5.6c0,0-0.1-4.4,1.6-4.8
			c2.4-0.7,3.1-1.4,5.2-3.8c0.7-0.7,1-4.2,1.8-6c0.7-1.5,2.6-0.4,4.2-0.5c3.5-0.1,5-1.4,4.5-4.5c-0.4-2.7,1.3-3.2,1-6.7
			c-0.2-3.1,0.5-4.2,1.6-6.6c0.8-1.7,1.2-4.6,1.7-6.6c0.9-3.7,0.8-2.5,3.5-4c2.1-1.1,3.1-6.1-0.5-6.1c-2.6,0-2.1,0.2-4.8-0.6
			c-0.9-0.3-2.3-2.5-3.7-1.5c-1.1,0.7-3.3,0.1-4.3-0.8c-1.2-1.1-5.4-0.7-6-1.3c-1.2-1.2-1.1-5.2-2.3-5.6c-2.4-1-5.6-0.2-7.8-1.4
			c-3.2-1.8-6-0.2-6.6-1.3c-1.2-2.5-1.9-3.4-4.3-4.6c-0.7-0.4-4.2-1.8-4.2-2.7c0-2.2,0.3-3.7-0.2-5.8c-1.1-4.5-1.3,0.4-2.3,2
			c-1.2,1.9-1.4,0.9-3.7,0.7c-3-0.3-3.6-1.2-3.6-4.7c0-2.2-0.8-2.5-3.3-3c-2.9-0.6-3.9-1.5-5.5-3.7c-0.4-0.5-2.8-5.1-2.8-5.5
			c0-3.6-1.7-3-3.5-2.1c-4.2,2.1-1.1-1.6-3.8-1.7c-1.9-0.1-1.1-5.5-3-5.5c-2.8,0-4.6,0.3-7.4,0.3c-2.5,0-4.5-0.6-5,2.5
			c-0.3,2.1-1.2,4.7-1,6.8c0.1,2.4-1.8,3.9-0.3,5.8c2.1,2.8-1.7,1.5-2.5,3.1c-0.9,1.9-0.6,1.3-2.7,2.3c-1.4,0.7-4,1.7-6.3,1.8
			c-1.5,0.1-5.8,0.6-7,1c-3.2,1.1-2.7,1.6-2.7,5.5c0,3-1.2,2.6-4,3.6c-1.4,0.4-3.1,0.6-4.6-0.6c-1.2-0.9-3.7-1.2-5.8-1.7
			c-3-0.7-5.6-1.2-6-3.2c-0.3-1.3-0.4-4.6-1.3-4.6c-1.9,0-3.8-0.1-5.1-1.4c-1.7-1.7-3.1-1.7-3.8,1.3c-0.7,2.8,1.6,2.1,1.5,5.2
			c-0.1,3.4,1,5.2,1,9.2c0,3.6-0.6,3.5,0.7,6c1.4,2.9-1.2,3.5-3.7,1.6c-3.2-2.4-2.9-0.7-5.5-0.7c-1.5,0-3.5-3.1-4.6-1.3
			c-1,1.6-4.6,2.4-6.3-0.3c-1.3-2-0.4-4.8-2-5.5c-2-1-2.7-0.3-5.4-0.6c-2.7-0.3-2.2,2.2-3.6,2.1c-1.5-0.1-2.3-0.1-4.5-0.1
			c-1.9,0-3.8-2.3-5.3-1.2c-1.5,1.1-6.5-0.9-7.1,2.4c-0.2,1-1.3,3,0.2,3.3c3.4,0.7-0.4,4.3,3,4.4c2.2,0.1,3.1,1.8-1.5,1.8
			c-3.8,0-2.8,1.9,0.2,3.5c1.4,0.7,0.8,4.4,2.4,4.4c1.5,0,4.5-1.9,7.5,1c1.7,1.7,3.9,2.7,6.1,2.9c3,0.3,0.6,4.3,2.4,3.8
			c6.2-1.7,5.8-0.8,5.1,0.3c-1,1.6-1.3,2.9,1.7,2.2c3.6-0.9,1.6,1,1.4,3.3c-0.2,1.9-0.4,3.1,3.6,3.1c5.4,0-0.8,1.4,0.9,2.9
			c1.5,1.3,1.8,5.2,0.2,4c-2.4-1.7-3.8-0.5,0.8,4.6c2.1,2.3,1.7,3.4,3.2,6.5c0.8,1.6,2.2,3.9,4.3,3.9c2.3,0,4-1.1,3.3,4
			c-0.3,2.4-0.5,2.7-0.7,5.2c-0.2,4-0.8,1.9-1.5,3.8c-0.6,1.6,0.2,2.7,1.4,2.8c1.7,0.2,2.5,2.5,3.7,4.3c0.7,1.1,1.2,2.4,1.3,4.4
			c0.1,2.9-1,2.4-1.8-0.7c-0.9-3.3-1.6-4.3-2.3-4.7c-1.7-1-2.5,0.5-3.2,3.5c-0.6,2.6-1.1,6.3-1.8,9.1c-0.3,1.1-2.4,4.3-0.5,4.4
			c4.3,0.1,3.5,2.7,0.3,2.5c-2.8-0.1-0.9,2.1-2.5,6.2c-0.8,1.9-1.5,3.1-2.5,5.3c-1.2,2.4-1.6,3.7-2.8,6.1c-0.7,1.5-0.3,3.1-1.2,4.8
			c-1.1,2.2-2.1,2.7-5.3,2.9c-0.5,0.1,0.9-0.3,2.5,1.9c0.9,1.2,3.4,0.5,4.6,1.1c0.6,0.3-1.4,3.1-0.8,4.9c0.4,1.4,2.4,0.4,4.3,1.7
			c0.9,0.6,0.9,2.1,3.8,2.1c1.4,0,3.7,0.8,3.7,2.7c0,1.8,1.5,1.4,3.3,1.4c2.1,0,3.5-0.5,4,1.5c0.5,2.1,0.9,2.1,2.9,2.1
			c1.8,0,3.4,0.2,5.1,0.1c2.5-0.2,1.3,1.1,4.2,0.9c1.6-0.1,1.6-0.5,1.6-2.5c0-1.2,3.6,0.5,4.2,1c1.7,1.3,2.8,2.4,3.7,2.3
			c1.3-0.1,2.2,1.8,3,1.9c1.3,0.1,1,2.5,1,3.6c0,2.5,0.9,1.9,3.3,1.9c2.5,0,3.4-0.5,4.2,1.4c0.4,0.8,0.1,1.4,2,1.4
			c2.3,0,1.1-1.2,3.6-1.1c3.2,0.1,2.3,2.7,5.3,2.4c2.7-0.2,0.8-2,4.7-2C107.6,199.9,106.8,199.1,108.1,199.3L108.1,199.3z"/>
	</defs>
	<clipPath id="path8072_5_">
		<use xlink:href="#path8072_1_"  style="overflow:visible;"/>
	</clipPath>
	<rect x="72.5" y="-17.3" class="st1" width="63.9" height="242"/>
</g>
<g>
	<defs>
		
			<path id="path8072_2_" sodipodi:nodetypes="cssssssssssssssssssssssssssssssssssssssssssssssssssssssssssssssssssssssssssssssssssssssssssssssssssssssssssssssssssssssssssssscssssssssssssssssssssssc" d="
			M108.1,199.3c0.3-2,0-2.1,0-4.4c0-2.1-0.2-3.3,0.3-5.3c0.3-1.1,0.2-3.5,1.4-4.7c0.8-0.8,5.9-2.5,8.3-4.6c2-1.8,2.8-3.7,6.2-3.7
			c2.7,0,3.1,3.1,4.5,3c4.8-0.3,3.4,1.8,6.2,2.5c2.8,0.7,2.5-1.4,4.8-0.3c1.5,0.7,4.6,1.4,5.5,2.4c2,2.2,4.1,2.1,5.6,3.7
			c0.2,0.2,5.5,1.6,8.6,1.4c2.3-0.1,6-1.1,6.5-2.2c0.5-1.3,0.7-2.2,2.8-4.3c1.8-1.8,3.5-3.3,5.5-4.2c2.5-1.1,4-3.7,5.5-5.1
			c2.4-2.1,5-3.4,4.3-5.2c-1.6-4-3.9,1.5-6.9-1.3c-0.7-0.6-5.8-2.7-6-4.5c-0.2-1.5-0.5-2.3,0.9-5.2c1.1-2.1,3.8-3.2,1.7-5.3
			c-1.1-1.1-2-0.9-3.3-2.3c-1.2-1.2-2.7-1.7-2.3-4.2c0.3-2.4,3.3-2.3,5.8-2.3c1,0,1.9-1.1,2.2-2.4c0.4-2-0.2-3-2.2-6.5
			c-0.5-0.9-2.3-0.5-2.3-3.9c0-3.5,3.3-1.9,3.2-5.1c-0.1-1.8-4.6-1.5-3.8-3.1c0.1-0.2,1.7-5.9-0.1-6.2c-0.6-0.1-7.1-0.1-7.1,2.4
			c0,1.5-0.2,3.9-1.4,4.2c-3,0.6-4.2-0.7-3-3.1c1.2-2.4,2.2-2.4,2.9-5.1c1.6-6.5,2-3.8,4.7-5.6c0,0-0.1-4.4,1.6-4.8
			c2.4-0.7,3.1-1.4,5.2-3.8c0.7-0.7,1-4.2,1.8-6c0.7-1.5,2.6-0.4,4.2-0.5c3.5-0.1,5-1.4,4.5-4.5c-0.4-2.7,1.3-3.2,1-6.7
			c-0.2-3.1,0.5-4.2,1.6-6.6c0.8-1.7,1.2-4.6,1.7-6.6c0.9-3.7,0.8-2.5,3.5-4c2.1-1.1,3.1-6.1-0.5-6.1c-2.6,0-2.1,0.2-4.8-0.6
			c-0.9-0.3-2.3-2.5-3.7-1.5c-1.1,0.7-3.3,0.1-4.3-0.8c-1.2-1.1-5.4-0.7-6-1.3c-1.2-1.2-1.1-5.2-2.3-5.6c-2.4-1-5.6-0.2-7.8-1.4
			c-3.2-1.8-6-0.2-6.6-1.3c-1.2-2.5-1.9-3.4-4.3-4.6c-0.7-0.4-4.2-1.8-4.2-2.7c0-2.2,0.3-3.7-0.2-5.8c-1.1-4.5-1.3,0.4-2.3,2
			c-1.2,1.9-1.4,0.9-3.7,0.7c-3-0.3-3.6-1.2-3.6-4.7c0-2.2-0.8-2.5-3.3-3c-2.9-0.6-3.9-1.5-5.5-3.7c-0.4-0.5-2.8-5.1-2.8-5.5
			c0-3.6-1.7-3-3.5-2.1c-4.2,2.1-1.1-1.6-3.8-1.7c-1.9-0.1-1.1-5.5-3-5.5c-2.8,0-4.6,0.3-7.4,0.3c-2.5,0-4.5-0.6-5,2.5
			c-0.3,2.1-1.2,4.7-1,6.8c0.1,2.4-1.8,3.9-0.3,5.8c2.1,2.8-1.7,1.5-2.5,3.1c-0.9,1.9-0.6,1.3-2.7,2.3c-1.4,0.7-4,1.7-6.3,1.8
			c-1.5,0.1-5.8,0.6-7,1c-3.2,1.1-2.7,1.6-2.7,5.5c0,3-1.2,2.6-4,3.6c-1.4,0.4-3.1,0.6-4.6-0.6c-1.2-0.9-3.7-1.2-5.8-1.7
			c-3-0.7-5.6-1.2-6-3.2c-0.3-1.3-0.4-4.6-1.3-4.6c-1.9,0-3.8-0.1-5.1-1.4c-1.7-1.7-3.1-1.7-3.8,1.3c-0.7,2.8,1.6,2.1,1.5,5.2
			c-0.1,3.4,1,5.2,1,9.2c0,3.6-0.6,3.5,0.7,6c1.4,2.9-1.2,3.5-3.7,1.6c-3.2-2.4-2.9-0.7-5.5-0.7c-1.5,0-3.5-3.1-4.6-1.3
			c-1,1.6-4.6,2.4-6.3-0.3c-1.3-2-0.4-4.8-2-5.5c-2-1-2.7-0.3-5.4-0.6c-2.7-0.3-2.2,2.2-3.6,2.1c-1.5-0.1-2.3-0.1-4.5-0.1
			c-1.9,0-3.8-2.3-5.3-1.2c-1.5,1.1-6.5-0.9-7.1,2.4c-0.2,1-1.3,3,0.2,3.3c3.4,0.7-0.4,4.3,3,4.4c2.2,0.1,3.1,1.8-1.5,1.8
			c-3.8,0-2.8,1.9,0.2,3.5c1.4,0.7,0.8,4.4,2.4,4.4c1.5,0,4.5-1.9,7.5,1c1.7,1.7,3.9,2.7,6.1,2.9c3,0.3,0.6,4.3,2.4,3.8
			c6.2-1.7,5.8-0.8,5.1,0.3c-1,1.6-1.3,2.9,1.7,2.2c3.6-0.9,1.6,1,1.4,3.3c-0.2,1.9-0.4,3.1,3.6,3.1c5.4,0-0.8,1.4,0.9,2.9
			c1.5,1.3,1.8,5.2,0.2,4c-2.4-1.7-3.8-0.5,0.8,4.6c2.1,2.3,1.7,3.4,3.2,6.5c0.8,1.6,2.2,3.9,4.3,3.9c2.3,0,4-1.1,3.3,4
			c-0.3,2.4-0.5,2.7-0.7,5.2c-0.2,4-0.8,1.9-1.5,3.8c-0.6,1.6,0.2,2.7,1.4,2.8c1.7,0.2,2.5,2.5,3.7,4.3c0.7,1.1,1.2,2.4,1.3,4.4
			c0.1,2.9-1,2.4-1.8-0.7c-0.9-3.3-1.6-4.3-2.3-4.7c-1.7-1-2.5,0.5-3.2,3.5c-0.6,2.6-1.1,6.3-1.8,9.1c-0.3,1.1-2.4,4.3-0.5,4.4
			c4.3,0.1,3.5,2.7,0.3,2.5c-2.8-0.1-0.9,2.1-2.5,6.2c-0.8,1.9-1.5,3.1-2.5,5.3c-1.2,2.4-1.6,3.7-2.8,6.1c-0.7,1.5-0.3,3.1-1.2,4.8
			c-1.1,2.2-2.1,2.7-5.3,2.9c-0.5,0.1,0.9-0.3,2.5,1.9c0.9,1.2,3.4,0.5,4.6,1.1c0.6,0.3-1.4,3.1-0.8,4.9c0.4,1.4,2.4,0.4,4.3,1.7
			c0.9,0.6,0.9,2.1,3.8,2.1c1.4,0,3.7,0.8,3.7,2.7c0,1.8,1.5,1.4,3.3,1.4c2.1,0,3.5-0.5,4,1.5c0.5,2.1,0.9,2.1,2.9,2.1
			c1.8,0,3.4,0.2,5.1,0.1c2.5-0.2,1.3,1.1,4.2,0.9c1.6-0.1,1.6-0.5,1.6-2.5c0-1.2,3.6,0.5,4.2,1c1.7,1.3,2.8,2.4,3.7,2.3
			c1.3-0.1,2.2,1.8,3,1.9c1.3,0.1,1,2.5,1,3.6c0,2.5,0.9,1.9,3.3,1.9c2.5,0,3.4-0.5,4.2,1.4c0.4,0.8,0.1,1.4,2,1.4
			c2.3,0,1.1-1.2,3.6-1.1c3.2,0.1,2.3,2.7,5.3,2.4c2.7-0.2,0.8-2,4.7-2C107.6,199.9,106.8,199.1,108.1,199.3L108.1,199.3z"/>
	</defs>
	<clipPath id="path8072_6_">
		<use xlink:href="#path8072_2_"  style="overflow:visible;"/>
	</clipPath>
	<rect x="5.3" y="-17" class="st2" width="67" height="242"/>
	
		<use xlink:href="#path8072_2_"  style="overflow:visible;fill-rule:evenodd;clip-rule:evenodd;fill:none;stroke:#7F7F7F;stroke-miterlimit:10;"/>
</g>
<g id="bleu_1_" transform="translate(-1395.4 -516.15)" inkscape:groupmode="layer" inkscape:label="Layer 1" class="st3">
	
		<path id="path8072_3_" sodipodi:nodetypes="cssssssssssssssssssssssssssssssssssssssssssssssssssssssssssssssssssssssssssssssssssssssssssssssssssssssssssssssssssssssssssssscssssssssssssssssssssssc" class="st4" d="
		M1503.5,715.4c0.3-2,0-2.1,0-4.4c0-2.1-0.2-3.3,0.3-5.3c0.3-1.1,0.2-3.5,1.4-4.7c0.8-0.8,5.9-2.5,8.3-4.6c2-1.8,2.8-3.7,6.2-3.7
		c2.7,0,3.1,3.1,4.5,3c4.8-0.3,3.4,1.8,6.2,2.5c2.8,0.7,2.5-1.4,4.8-0.3c1.5,0.7,4.6,1.4,5.5,2.4c2,2.2,4.1,2.1,5.6,3.7
		c0.2,0.2,5.5,1.6,8.6,1.4c2.3-0.1,6-1.1,6.5-2.2c0.5-1.3,0.7-2.2,2.8-4.3c1.8-1.8,3.5-3.3,5.5-4.2c2.5-1.1,4-3.7,5.5-5.1
		c2.4-2.1,5-3.4,4.3-5.2c-1.6-4-3.9,1.5-6.9-1.3c-0.7-0.6-5.8-2.7-6-4.5c-0.2-1.5-0.5-2.3,0.9-5.2c1.1-2.1,3.8-3.2,1.7-5.3
		c-1.1-1.1-2-0.9-3.3-2.3c-1.2-1.2-2.7-1.7-2.3-4.2c0.3-2.4,3.3-2.3,5.8-2.3c1,0,1.9-1.1,2.2-2.4c0.4-2-0.2-3-2.2-6.5
		c-0.5-0.9-2.3-0.5-2.3-3.9c0-3.5,3.3-1.9,3.2-5.1c-0.1-1.8-4.6-1.5-3.8-3.1c0.1-0.2,1.7-5.9-0.1-6.2c-0.6-0.1-7.1-0.1-7.1,2.4
		c0,1.5-0.2,3.9-1.4,4.2c-3,0.6-4.2-0.7-3-3.1c1.2-2.4,2.2-2.4,2.9-5.1c1.6-6.5,2-3.8,4.7-5.6c0,0-0.1-4.4,1.6-4.8
		c2.4-0.7,3.1-1.4,5.2-3.8c0.7-0.7,1-4.2,1.8-6c0.7-1.5,2.6-0.4,4.2-0.5c3.5-0.1,5-1.4,4.5-4.5c-0.4-2.7,1.3-3.2,1-6.7
		c-0.2-3.1,0.5-4.2,1.6-6.6c0.8-1.7,1.2-4.6,1.7-6.6c0.9-3.7,0.8-2.5,3.5-4c2.1-1.1,3.1-6.1-0.5-6.1c-2.6,0-2.1,0.2-4.8-0.6
		c-0.9-0.3-2.3-2.5-3.7-1.5c-1.1,0.7-3.3,0.1-4.3-0.8c-1.2-1.1-5.4-0.7-6-1.3c-1.2-1.2-1.1-5.2-2.3-5.6c-2.4-1-5.6-0.2-7.8-1.4
		c-3.2-1.8-6-0.2-6.6-1.3c-1.2-2.5-1.9-3.4-4.3-4.6c-0.7-0.4-4.2-1.8-4.2-2.7c0-2.2,0.3-3.7-0.2-5.8c-1.1-4.5-1.3,0.4-2.3,2
		c-1.2,1.9-1.4,0.9-3.7,0.7c-3-0.3-3.6-1.2-3.6-4.7c0-2.2-0.8-2.5-3.3-3c-2.9-0.6-3.9-1.5-5.5-3.7c-0.4-0.5-2.8-5.1-2.8-5.5
		c0-3.6-1.7-3-3.5-2.1c-4.2,2.1-1.1-1.6-3.8-1.7c-1.9-0.1-1.1-5.5-3-5.5c-2.8,0-4.6,0.3-7.4,0.3c-2.5,0-4.5-0.6-5,2.5
		c-0.3,2.1-1.2,4.7-1,6.8c0.1,2.4-1.8,3.9-0.3,5.8c2.1,2.8-1.7,1.5-2.5,3.1c-0.9,1.9-0.6,1.3-2.7,2.3c-1.4,0.7-4,1.7-6.3,1.8
		c-1.5,0.1-5.8,0.6-7,1c-3.2,1.1-2.7,1.6-2.7,5.5c0,3-1.2,2.6-4,3.6c-1.4,0.4-3.1,0.6-4.6-0.6c-1.2-0.9-3.7-1.2-5.8-1.7
		c-3-0.7-5.6-1.2-6-3.2c-0.3-1.3-0.4-4.6-1.3-4.6c-1.9,0-3.8-0.1-5.1-1.4c-1.7-1.7-3.1-1.7-3.8,1.3c-0.7,2.8,1.6,2.1,1.5,5.2
		c-0.1,3.4,1,5.2,1,9.2c0,3.6-0.6,3.5,0.7,6c1.4,2.9-1.2,3.5-3.7,1.6c-3.2-2.4-2.9-0.7-5.5-0.7c-1.5,0-3.5-3.1-4.6-1.3
		c-1,1.6-4.6,2.4-6.3-0.3c-1.3-2-0.4-4.8-2-5.5c-2-1-2.7-0.3-5.4-0.6c-2.7-0.3-2.2,2.2-3.6,2.1c-1.5-0.1-2.3-0.1-4.5-0.1
		c-1.9,0-3.8-2.3-5.3-1.2c-1.5,1.1-6.5-0.9-7.1,2.4c-0.2,1-1.3,3,0.2,3.3c3.4,0.7-0.4,4.3,3,4.4c2.2,0.1,3.1,1.8-1.5,1.8
		c-3.8,0-2.8,1.9,0.2,3.5c1.4,0.7,0.8,4.4,2.4,4.4c1.5,0,4.5-1.9,7.5,1c1.7,1.7,3.9,2.7,6.1,2.9c3,0.3,0.6,4.3,2.4,3.8
		c6.2-1.7,5.8-0.8,5.1,0.3c-1,1.6-1.3,2.9,1.7,2.2c3.6-0.9,1.6,1,1.4,3.3c-0.2,1.9-0.4,3.1,3.6,3.1c5.4,0-0.8,1.4,0.9,2.9
		c1.5,1.3,1.8,5.2,0.2,4c-2.4-1.7-3.8-0.5,0.8,4.6c2.1,2.3,1.7,3.4,3.2,6.5c0.8,1.6,2.2,3.9,4.3,3.9c2.3,0,4-1.1,3.3,4
		c-0.3,2.4-0.5,2.7-0.7,5.2c-0.2,4-0.8,1.9-1.5,3.8c-0.6,1.6,0.2,2.7,1.4,2.8c1.7,0.2,2.5,2.5,3.7,4.3c0.7,1.1,1.2,2.4,1.3,4.4
		c0.1,2.9-1,2.4-1.8-0.7c-0.9-3.3-1.6-4.3-2.3-4.7c-1.7-1-2.5,0.5-3.2,3.5c-0.6,2.6-1.1,6.3-1.8,9.1c-0.3,1.1-2.4,4.3-0.5,4.4
		c4.3,0.1,3.5,2.7,0.3,2.5c-2.8-0.1-0.9,2.1-2.5,6.2c-0.8,1.9-1.5,3.1-2.5,5.3c-1.2,2.4-1.6,3.7-2.8,6.1c-0.7,1.5-0.3,3.1-1.2,4.8
		c-1.1,2.2-2.1,2.7-5.3,2.9c-0.5,0.1,0.9-0.3,2.5,1.9c0.9,1.2,3.4,0.5,4.6,1.1c0.6,0.3-1.4,3.1-0.8,4.9c0.4,1.4,2.4,0.4,4.3,1.7
		c0.9,0.6,0.9,2.1,3.8,2.1c1.4,0,3.7,0.8,3.7,2.7c0,1.8,1.5,1.4,3.3,1.4c2.1,0,3.5-0.5,4,1.5c0.5,2.1,0.9,2.1,2.9,2.1
		c1.8,0,3.4,0.2,5.1,0.1c2.5-0.2,1.3,1.1,4.2,0.9c1.6-0.1,1.6-0.5,1.6-2.5c0-1.2,3.6,0.5,4.2,1c1.7,1.3,2.8,2.4,3.7,2.3
		c1.3-0.1,2.2,1.8,3,1.9c1.3,0.1,1,2.5,1,3.6c0,2.5,0.9,1.9,3.3,1.9c2.5,0,3.4-0.5,4.2,1.4c0.4,0.8,0.1,1.4,2,1.4
		c2.3,0,1.1-1.2,3.6-1.1c3.2,0.1,2.3,2.7,5.3,2.4c2.7-0.2,0.8-2,4.7-2C1503,716.1,1502.2,715.2,1503.5,715.4L1503.5,715.4z"/>
</g>
</svg>
